<?xml version="1.0" encoding="UTF-8"?>
<svg width="700pt" height="700pt" version="1.1" viewBox="0 0 700 700" xmlns="http://www.w3.org/2000/svg">
 <g>
  <path d="m270.95 362.23h-20.266v30.801h18.621c7.4023 0 12.094-0.85938 14.105-2.5547 2.0117-1.6992 2.9922-5.7227 2.9922-12.074 0-7.2812-0.82422-11.797-2.5039-13.527-1.6445-1.7695-5.9688-2.6445-12.949-2.6445z"/>
  <path d="m431.43 362.23h-24.309v58.625h23.293c7.8242 0 12.879-1.8008 15.172-5.4062 2.293-3.5859 3.4297-11.531 3.4297-23.816 0-12.703-1.0312-20.789-3.0977-24.238-2.0273-3.4492-6.8555-5.1641-14.488-5.1641z"/>
  <path d="m535.2 0h-370.41c-19.25 0-35 15.75-35 35v82.059h110.67v35h-110.67v47.266h156.64v35h-156.64v290.68c0 19.25 15.75 35 35 35h370.39c19.25 0 35-15.75 35-35v-490c0.019531-19.25-15.75-35-34.98-35zm-238 401.05c-3.8867 3.7812-11.707 5.6719-23.484 5.6719l-3.7812 0.070312h-19.266v27.824h-16.312v-86.137h38.992c11.656 0 19.512 2.0117 23.574 6.0898 4.0586 4.043 6.0898 11.898 6.0898 23.504-0.019531 11.531-1.9453 19.18-5.8125 22.977zm75.617 29.312c-4.4258 3.3242-14.176 5.0039-29.227 5.0039-13.547 0-22.539-1.6445-26.984-4.918-4.4258-3.2891-6.6484-9.9219-6.6484-19.949l-0.070313-3.1484h15.906l0.050781 1.8203c0 6.0195 1.0664 9.6953 3.168 11.043 2.1016 1.3477 7.8398 2.0117 17.219 2.0117 7.3164 0 12.004-0.76953 14.016-2.3281 2.0117-1.5586 3.0273-5.1641 3.0273-10.797 0-4.1641-0.76953-6.9297-2.3086-8.2969-1.5391-1.3633-4.8281-2.2031-9.9219-2.5039l-9.0312-0.57812c-13.633-0.78906-22.348-2.6758-26.129-5.6719-3.7969-2.9922-5.6719-9.3984-5.6719-19.25 0-10.047 2.2734-16.766 6.8438-20.09 4.5664-3.3438 13.684-5.0234 27.352-5.0234 12.949 0 21.684 1.5391 26.18 4.6211 4.5156 3.0781 6.7734 9.0664 6.7734 17.973v3.2891l-15.988 0.007813c-0.085938-0.80469-0.12109-1.3828-0.12109-1.7656-0.36719-4.8281-1.4531-7.875-3.2188-9.1172-1.7852-1.2266-5.9492-1.8555-12.512-1.8555-7.7344 0-12.793 0.71875-15.172 2.1523-2.3789 1.4336-3.5508 4.4453-3.5508 9.0312 0 5.4258 0.96094 8.6797 2.9062 9.7812 1.9258 1.0859 8.3281 1.9414 19.18 2.5391 12.828 0.71875 21.141 2.5547 24.902 5.4766 3.7617 2.957 5.6367 9.082 5.6367 18.375 0.007813 11.422-2.1953 18.809-6.6055 22.168zm87.008-4.918c-3.8867 6.125-12.602 9.1719-26.199 9.1719h-42.84v-86.137h42.352c12.039 0 20.457 2.6094 25.27 7.875 4.8125 5.2656 7.2266 14.473 7.2266 27.633 0.003906 21.508-1.9375 35.332-5.8086 41.457z"/>
 </g>
</svg>
