<?xml version="1.0" encoding="UTF-8"?>
<svg width="700pt" height="700pt" version="1.1" viewBox="0 0 700 700" xmlns="http://www.w3.org/2000/svg">
 <path d="m535.2 0h-370.41c-19.25 0-35 15.75-35 35v82.059h110.67v35h-110.67v47.266h156.64v35h-156.64v290.68c0 19.25 15.75 35 35 35h370.39c19.25 0 35-15.75 35-35v-490c0.019531-19.25-15.75-35-34.98-35zm-276.71 434.63h-16.344v-37.238h-40.391v37.238h-16.344v-86.137h16.344v35.141h40.391v-35.141h16.344zm75.234-71.504h-25.742v71.504h-16.344l-0.003906-71.504h-24.867v-14.629h66.953zm108.97 71.504h-16.344v-46.953c0-3.7461 0.10547-7.9961 0.31641-12.758l0.31641-6.4414 0.35156-6.3711h-0.50781l-1.9414 6.0039-1.9062 6.0039c-1.7852 5.3906-3.1484 9.3633-4.0938 11.934l-18.934 48.578h-14.875l-19.145-48.211c-1.0508-2.6406-2.4336-6.6328-4.1641-11.934l-1.9609-6.0039-1.9609-5.9336h-0.50781l0.31641 6.2461 0.31641 6.3008c0.24609 4.8633 0.36719 9.0664 0.36719 12.566v46.953h-16.344v-86.137h26.637l15.398 39.863c1.0664 2.7812 2.4336 6.7539 4.1641 11.934l1.8711 6.0039 1.9414 5.9336h0.57812l1.8359-5.9336 1.8711-5.9336c1.5742-5.0039 2.9062-8.9609 4.0234-11.863l15.137-40.004h27.211l-0.003907 86.156zm71.887 0h-56.734v-86.137h16.363v71.488h40.391v14.648z"/>
</svg>
