<?xml version="1.0" encoding="UTF-8"?>
<svg width="700pt" height="700pt" version="1.1" viewBox="0 0 700 700" xmlns="http://www.w3.org/2000/svg">
 <g>
  <path d="m323.47 406.02h29.543l-14.91-44.852z"/>
  <path d="m535.2 0h-370.41c-19.25 0-35 15.75-35 35v82.059h110.67v35h-110.67v47.266h156.64v35h-156.64v290.68c0 19.25 15.75 35 35 35h370.39c19.25 0 35-15.75 35-35v-490c0.019531-19.25-15.75-35-34.98-35zm-172.94 434.61-5.4609-16.52h-37.188l-5.3711 16.52h-17.289l28.664-86.137h24.551l29.086 86.137zm40.777 0h-16.344v-86.137h16.344z"/>
 </g>
</svg>
