<?xml version="1.0" encoding="UTF-8"?>
<svg width="700pt" height="700pt" version="1.1" viewBox="0 0 700 700" xmlns="http://www.w3.org/2000/svg">
 <path d="m535.2 0h-370.41c-19.25 0-35 15.75-35 35v82.059h110.67v35h-110.67v47.266h156.64v35h-156.64v290.68c0 19.25 15.75 35 35 35h370.39c19.25 0 35-15.75 35-35v-490c0.019531-19.25-15.75-35-34.98-35zm-225.71 406.86c0 12.004-2.1875 19.738-6.5625 23.258-4.375 3.5156-14.051 5.2656-29.016 5.2656-17.012 0-27.457-2.7656-31.379-8.3281-3.9023-5.5469-5.8633-20.406-5.8633-44.555 0-14.211 2.6406-23.574 7.9453-28.07 5.3203-4.4805 16.398-6.7188 33.25-6.7188 12.285 0 20.492 1.8359 24.605 5.5117 4.1289 3.6914 6.1953 10.988 6.1953 21.945l0.070313 1.9414h-16.414v-2.2031c0-5.6367-1.0664-9.2383-3.2031-10.832-2.1172-1.5742-6.9648-2.3633-14.543-2.3633-10.133 0-16.223 1.2422-18.27 3.7266-2.0312 2.4844-3.0625 9.8359-3.0625 22.086 0 16.484 0.92578 26.25 2.7461 29.297 1.8203 3.0273 7.7344 4.5508 17.762 4.5508 8.1211 0 13.406-0.85938 15.801-2.5391 2.4336-1.6992 3.6406-5.3906 3.6406-11.113l-0.14062-3.8516h16.414l0.003906 2.9922zm69.668 23.5c-4.4102 3.3242-14.156 5.0039-29.227 5.0039-13.527 0-22.523-1.6445-26.969-4.918-4.4453-3.2734-6.668-9.9219-6.668-19.949l-0.050781-3.1484h15.891l0.070313 1.8203c0 6.0195 1.0508 9.6953 3.1484 11.043 2.1172 1.3477 7.8594 2.0117 17.238 2.0117 7.3164 0 11.988-0.76953 14-2.3281 2.0117-1.5586 3.0469-5.1641 3.0469-10.797 0-4.1641-0.76953-6.9297-2.3086-8.2969-1.5391-1.3633-4.8477-2.2031-9.9414-2.5039l-9.0312-0.57812c-13.613-0.78906-22.328-2.6758-26.129-5.6719-3.7812-2.9922-5.6719-9.3984-5.6719-19.25 0-10.047 2.293-16.766 6.8594-20.09 4.5664-3.3438 13.668-5.0234 27.336-5.0234 12.969 0 21.684 1.5391 26.199 4.6211 4.4961 3.0781 6.7539 9.0664 6.7539 17.973v3.2891h-15.961c-0.085938-0.80469-0.14063-1.3828-0.14063-1.7656-0.36719-4.8281-1.4531-7.875-3.2188-9.1172-1.7656-1.2266-5.9336-1.8555-12.496-1.8555-7.7344 0-12.793 0.71875-15.172 2.1523-2.3789 1.4336-3.5703 4.4453-3.5703 9.0312 0 5.4258 0.98047 8.6797 2.9062 9.7812 1.9258 1.1016 8.3477 1.9414 19.199 2.5391 12.809 0.71875 21.121 2.5547 24.887 5.4766 3.7812 2.957 5.6523 9.082 5.6523 18.375 0 11.43-2.207 18.832-6.6328 22.176zm77.367 0c-4.4258 3.3242-14.176 5.0039-29.227 5.0039-13.527 0-22.523-1.6445-26.969-4.918-4.4453-3.2734-6.668-9.9219-6.668-19.949l-0.050781-3.1484h15.891l0.070312 1.8203c0 6.0195 1.0508 9.6953 3.1484 11.043 2.1172 1.3477 7.8594 2.0117 17.219 2.0117 7.332 0 12.004-0.76953 14.016-2.3281 2.0117-1.5586 3.0273-5.1641 3.0273-10.797 0-4.1641-0.76953-6.9297-2.293-8.2969-1.5391-1.3633-4.8477-2.2031-9.9414-2.5039l-9.0312-0.57812c-13.613-0.78906-22.328-2.6758-26.129-5.6719-3.7812-2.9922-5.6719-9.3984-5.6719-19.25 0-10.047 2.293-16.766 6.8594-20.09 4.5664-3.3438 13.668-5.0234 27.336-5.0234 12.949 0 21.684 1.5391 26.199 4.6211 4.4961 3.0781 6.7539 9.0664 6.7539 17.973v3.2891h-15.961c-0.085937-0.80469-0.14062-1.3828-0.14062-1.7656-0.36719-4.8281-1.4531-7.875-3.2188-9.1172-1.7852-1.2266-5.9336-1.8555-12.496-1.8555-7.7344 0-12.793 0.71875-15.172 2.1523-2.3789 1.4336-3.5703 4.4453-3.5703 9.0312 0 5.4258 0.98047 8.6797 2.9062 9.7812 1.9258 1.1016 8.3477 1.9414 19.18 2.5391 12.828 0.71875 21.141 2.5547 24.902 5.4766 3.7617 2.957 5.6523 9.082 5.6523 18.375 0.011719 11.43-2.2109 18.832-6.6211 22.176z"/>
</svg>
