<?xml version="1.0" encoding="UTF-8"?>
<svg width="700pt" height="700pt" version="1.1" viewBox="0 0 700 700" xmlns="http://www.w3.org/2000/svg">
 <path d="m535.18 0h-370.39c-19.25 0-35 15.75-35 35v82.059h110.67v35h-110.67v47.266h156.64v35h-156.64v290.68c0 19.25 15.75 35 35 35h370.39c19.25 0 35-15.75 35-35v-490c0-19.25-15.75-35-35-35zm-197.55 407.93c0 11.059-1.8203 18.41-5.4766 22.031-3.6562 3.6055-11.113 5.4258-22.328 5.4258-11.953 0-19.703-1.75-23.258-5.2344-3.5508-3.4844-5.3359-11.129-5.3359-22.926l0.19141-6.3711h15.594c0.26172 3.2188 0.38672 5.6016 0.38672 7.1914 0 1.5234 0.050781 3.3438 0.19141 5.4961 0.24609 5.2148 4.3906 7.8242 12.426 7.8242 4.7969 0 7.875-0.94531 9.2383-2.8164 1.3633-1.8555 2.0469-6.0898 2.0469-12.652v-57.418h16.344l-0.003907 59.449zm74.547 22.434c-4.4258 3.3242-14.176 5.0039-29.227 5.0039-13.547 0-22.539-1.6445-26.984-4.918-4.4258-3.2891-6.6484-9.9219-6.6484-19.949l-0.070312-3.1484h15.906l0.050781 1.8203c0 6.0195 1.0664 9.6953 3.168 11.043 2.1016 1.3477 7.8398 2.0117 17.219 2.0117 7.3164 0 12.004-0.76953 14.016-2.3281 2.0117-1.5586 3.0273-5.1641 3.0273-10.797 0-4.1641-0.76953-6.9297-2.3086-8.2969-1.5391-1.3633-4.8281-2.2031-9.9219-2.5039l-9.0312-0.57812c-13.633-0.78906-22.348-2.6758-26.129-5.6719-3.7969-2.9922-5.6719-9.3984-5.6719-19.25 0-10.047 2.2734-16.766 6.8438-20.09 4.5664-3.3438 13.684-5.0234 27.352-5.0234 12.949 0 21.684 1.5391 26.18 4.6211 4.5156 3.0781 6.7734 9.0664 6.7734 17.973v3.2891h-15.977c-0.085938-0.80469-0.12109-1.3828-0.12109-1.7656-0.36719-4.8281-1.4531-7.875-3.2188-9.1172-1.7852-1.2266-5.9492-1.8555-12.512-1.8555-7.7344 0-12.793 0.71875-15.172 2.1523-2.3789 1.4336-3.5508 4.4453-3.5508 9.0312 0 5.4258 0.96094 8.6797 2.9062 9.7812 1.9258 1.0859 8.3281 1.9414 19.18 2.5391 12.828 0.71875 21.141 2.5547 24.902 5.4766 3.7617 2.957 5.6367 9.082 5.6367 18.375 0 11.43-2.207 18.816-6.6172 22.176z"/>
</svg>
